<?xml version="1.0" encoding="utf-8"?>
<!-- Generator: Adobe Illustrator 25.0.0, SVG Export Plug-In . SVG Version: 6.00 Build 0)  -->
<svg version="1.1" id="Layer_1" xmlns="http://www.w3.org/2000/svg" xmlns:xlink="http://www.w3.org/1999/xlink" x="0px" y="0px"
	 viewBox="0 0 60 60" style="enable-background:new 0 0 60 60;" xml:space="preserve">
<style type="text/css">
	.st0{fill:#D5B9A7;}
	.st1{fill:#FFFFFF;}
	.st2{fill:#364BA8;}
</style>
<g>
	<path class="st0" d="M30,0C14.58,0,2.07,12.47,2.07,27.85c0,11.57,7.07,21.48,17.14,25.69v-7.54C13,42.31,8.84,35.56,8.84,27.85
		C8.84,16.2,18.32,6.75,30,6.75s21.16,9.44,21.16,21.09c0,7.76-4.2,14.54-10.46,18.2v7.53c10.12-4.18,17.23-14.13,17.23-25.73
		C57.93,12.47,45.42,0,30,0z"/>
	<g>
		<path class="st0" d="M15.63,16.21c0.29,0.81,1.27,2.73,4.46,5.99c1.59,1.62,3.84,3.16,5.72,4.3c0.99-1.22,2.5-2.01,4.19-2.01
			c1.69,0,3.2,0.78,4.19,2.01c1.88-1.14,4.13-2.68,5.72-4.3c4.39-4.49,4.59-6.44,4.59-6.44H15.51L15.63,16.21z"/>
		<path class="st1" d="M26.55,20.4c0.38,0,0.69-0.31,0.69-0.7s-0.31-0.7-0.69-0.7c-0.38,0-0.69,0.31-0.69,0.7S26.16,20.4,26.55,20.4
			z"/>
		<path class="st1" d="M33.45,19.01c0.38,0.03,0.66,0.36,0.63,0.75c-0.03,0.38-0.36,0.67-0.74,0.64c-0.38-0.03-0.66-0.36-0.63-0.75
			C32.74,19.27,33.07,18.98,33.45,19.01z"/>
		<path class="st1" d="M36.11,19.19c0.28,0.02,0.5,0.27,0.47,0.56c-0.02,0.29-0.27,0.5-0.55,0.48c-0.28-0.02-0.5-0.27-0.47-0.56
			S35.83,19.17,36.11,19.19z"/>
		<path class="st1" d="M23.98,19.19c0.28,0.02,0.5,0.27,0.47,0.56c-0.02,0.29-0.27,0.5-0.55,0.48c-0.28-0.02-0.5-0.27-0.47-0.56
			C23.45,19.38,23.7,19.17,23.98,19.19z"/>
		<path class="st1" d="M29.61,18.93l0.35-0.51l0.33,0.53l0.61-0.11l-0.14,0.61l0.5,0.36l-0.52,0.33l0.11,0.61l-0.6-0.14l-0.36,0.51
			l-0.33-0.53l-0.61,0.11l0.14-0.6l-0.5-0.36l0.52-0.33l-0.11-0.61L29.61,18.93z"/>
		<path class="st2" d="M44.95,28.37c1.27-0.89,2.25-2.05,2.51-3.64c0.22-1.34-0.15-2.97-0.15-2.97s-1.44,2.52-5.82,4.77
			c-1.43,0.74-3.11,1.23-4.15,1.49c-0.05-0.14-0.1-0.28-0.15-0.41c0.69-0.24,1.67-0.59,2.62-0.97c0.96-0.39,4.3-2.25,5.36-4.22
			c1.03-1.9,0.89-3.57,0.67-4.51c-0.32-1.35-1.35-2.14-1.35-2.14s-0.2,1.95-4.59,6.44c-1.59,1.62-3.84,3.16-5.72,4.3
			c0.76,0.94,1.21,2.14,1.21,3.44c0,2.22-1.32,4.13-3.21,4.98c-0.13-0.06-0.26-0.11-0.39-0.18c-0.92-0.44-1.3-1.49-1.18-2.14
			c0.22-1.27,0.96-1.78,2.44-1.53c0,0,0-1.02-2.26-2.45c-0.81-0.52-1.94-1.3-2.08-1.78c-0.22,0.25-0.42,0.67-0.43,1.2
			c0,0.45,0.22,1.03,0.58,1.21c0.37,0.18,0.51,0.18,0.91,0.3c-1.77,0.91-2.96,2.88-2.46,5.12c-1.63-0.94-2.73-2.71-2.73-4.73
			c0-1.31,0.46-2.51,1.22-3.45c-1.88-1.14-4.13-2.68-5.72-4.3c-4.39-4.49-4.59-6.44-4.59-6.44s-1.03,0.79-1.35,2.14
			c-0.22,0.94-0.36,2.6,0.67,4.51c1.07,1.97,4.4,3.83,5.36,4.22c0.95,0.38,1.93,0.73,2.62,0.97c-0.05,0.13-0.1,0.27-0.15,0.41
			c-1.04-0.26-2.72-0.75-4.15-1.49c-4.38-2.25-5.82-4.77-5.82-4.77s-0.37,1.63-0.15,2.97c0.26,1.59,1.24,2.74,2.51,3.64
			c1.47,1.03,4.61,2.02,6.13,2.23c0.39,0.05,0.71,0.09,0.98,0.12c-0.01,0.15-0.01,0.3-0.01,0.45c-0.97-0.09-2.19-0.28-3.31-0.58
			c-4.55-1.21-6.29-3.41-6.29-3.41s-0.05,1.6,0.39,2.81c0.52,1.44,1.58,2.24,2.93,2.85c1.55,0.7,4.75,0.94,6.21,0.86
			c0.11-0.01,0.23-0.01,0.33-0.02c0.03,0.14,0.04,0.28,0.08,0.41c-0.5,0.01-1.11,0.07-1.62,0.06c-1.07-0.02-3.31-0.24-4.43-0.48
			c-1.77-0.37-3.06-1.46-3.06-1.46s0.51,1.86,1.01,2.68c0.47,0.77,1.06,1.31,1.84,1.67c0.72,0.33,1.81,0.43,3.3,0.31
			c0.91-0.07,3.09-0.4,3.92-0.53c0.08,0.14,0.17,0.28,0.25,0.41c-0.53,0.15-1.92,0.52-3.6,0.74c-2.19,0.29-3.89,0-3.89,0
			s0.81,1.06,1.41,1.59c0.74,0.65,1.32,0.89,2.76,0.83c1.7-0.06,3.77-1.16,4.62-1.57c0.11,0.1,0.22,0.21,0.35,0.33
			c-0.5,0.32-1.77,1.02-2.52,1.33c-1.51,0.62-3.36,0.84-3.36,0.84s1.12,1.42,2.84,1.45c1.78,0.02,2.77-0.77,3.29-1.13
			c0.32-0.22,0.85-0.76,1.21-1.15c0.12,0.1,0.23,0.21,0.35,0.31c-0.33,0.51-0.98,1.36-1.89,1.92c-1.63,1-2.38,0.96-2.38,0.96
			s1.62,1.28,2.96,0.99c1.26-0.27,2.31-1.81,2.76-2.57c0.13,0.11,0.24,0.22,0.36,0.32c-0.09,0.23-0.22,0.5-0.39,0.79
			c-1.09,1.87-2.2,2.5-2.2,2.5s0.5,0.64,2.42,1.42c0.46,0.19,0.87,0.31,1.21,0.4v0.01c0.01,0,0.01,0,0.02-0.01
			c0.01,0,0.01,0,0.02,0.01v-0.01c0.34-0.09,0.75-0.21,1.21-0.4c1.92-0.78,2.42-1.42,2.42-1.42s-1.11-0.64-2.2-2.5
			c-0.17-0.29-0.3-0.57-0.39-0.79c0.11-0.1,0.23-0.21,0.36-0.32c0.45,0.76,1.5,2.3,2.76,2.57c1.34,0.29,2.96-0.99,2.96-0.99
			s-0.75,0.04-2.38-0.96c-0.91-0.56-1.56-1.41-1.89-1.92c0.12-0.1,0.23-0.21,0.35-0.31c0.36,0.39,0.89,0.93,1.21,1.15
			c0.52,0.36,1.52,1.16,3.29,1.13c1.71-0.02,2.84-1.45,2.84-1.45s-1.85-0.22-3.36-0.84c-0.74-0.31-2.02-1-2.52-1.33
			c0.13-0.12,0.25-0.23,0.35-0.33c0.85,0.4,2.91,1.5,4.62,1.57c1.44,0.05,2.02-0.18,2.76-0.83c0.6-0.53,1.41-1.59,1.41-1.59
			s-1.7,0.29-3.89,0c-1.68-0.22-3.06-0.59-3.6-0.74c0.09-0.13,0.17-0.27,0.25-0.41c0.83,0.13,3,0.46,3.92,0.53
			c1.49,0.12,2.58,0.02,3.3-0.31c0.78-0.36,1.36-0.9,1.84-1.67c0.5-0.82,1.01-2.68,1.01-2.68s-1.29,1.09-3.06,1.46
			c-1.12,0.23-3.36,0.46-4.43,0.48c-0.52,0.01-1.12-0.05-1.62-0.06c0.04-0.13,0.05-0.28,0.08-0.41c0.1,0.01,0.22,0.01,0.33,0.02
			c1.46,0.08,4.65-0.17,6.21-0.86c1.35-0.6,2.4-1.41,2.93-2.85c0.44-1.21,0.39-2.81,0.39-2.81s-1.74,2.2-6.29,3.41
			c-1.13,0.3-2.34,0.49-3.31,0.58c0-0.15-0.01-0.3-0.01-0.45c0.26-0.03,0.58-0.06,0.98-0.12C40.34,30.39,43.49,29.4,44.95,28.37z"/>
	</g>
	<g>
		<g>
			<path class="st2" d="M40.87,44.25c-0.13-0.06-0.28-0.05-0.39,0.04l-6,4.46c-0.3,0.22-0.37,0.62-0.18,0.94l-0.95,0.25l-1.38-0.57
				c-0.02-0.01-0.05-0.02-0.07-0.02c-1.33-0.25-2.01-0.01-2.37,0.26h-3.77c0.13-0.3,0.03-0.65-0.23-0.85l-6-4.46
				c-0.11-0.08-0.26-0.1-0.39-0.04c-0.13,0.06-0.21,0.19-0.21,0.32v8.62c0,0.13,0.07,0.25,0.19,0.31l2.28,1.27
				c0.11,0.06,0.24,0.09,0.36,0.09c0.19,0,0.37-0.07,0.51-0.2l0.43,0.33c-0.25,0.31-0.3,0.73-0.14,1.09
				c0.16,0.36,0.51,0.6,0.92,0.64c0.03,0,0.06,0,0.09,0c0.06,0,0.11-0.01,0.17-0.01c0.02,0.26,0.13,0.5,0.3,0.7l0,0
				c0.22,0.26,0.54,0.41,0.88,0.44c0.04,0,0.07,0,0.11,0c0.01,0,0.01,0,0.02,0c0.01,0.23,0.1,0.46,0.25,0.64
				c0.21,0.24,0.52,0.38,0.84,0.38c0.13,0,0.26-0.02,0.38-0.07c0.12,0.43,0.51,0.74,0.96,0.77c0.03,0,0.06,0,0.09,0
				c0.25,0,0.5-0.08,0.69-0.24l0.58-0.44l1.36,0.89c0.21,0.14,0.46,0.21,0.71,0.21c0.09,0,0.17-0.01,0.26-0.02
				c0.56-0.11,0.97-0.56,1.03-1.1c0.37,0.11,0.77,0.05,1.09-0.16c0.32-0.21,0.52-0.55,0.55-0.93c0.43,0.14,0.9,0.05,1.24-0.24
				s0.5-0.72,0.43-1.16c0.37-0.04,0.7-0.24,0.91-0.54c0.21-0.3,0.27-0.68,0.17-1.03l0.73-0.71l0.3,0.43
				c0.22,0.31,0.64,0.41,0.98,0.23l2.28-1.27c0.12-0.06,0.19-0.18,0.19-0.31v-8.62C41.07,44.44,40.99,44.31,40.87,44.25z
				 M19.67,52.98V45.3l4.12,3.07l-3.38,5.03L19.67,52.98z M21.76,54.15l-0.72-0.4l3.33-4.95l0.7,0.52L21.76,54.15z M23.8,55.93
				c-0.07,0.06-0.17,0.09-0.26,0.08c-0.14-0.01-0.26-0.1-0.31-0.24c-0.05-0.13-0.01-0.28,0.1-0.37l0.92-0.69
				c0.06-0.05,0.15-0.08,0.23-0.08c0.01,0,0.02,0,0.03,0c0.14,0.01,0.26,0.1,0.31,0.24c0.05,0.13,0.01,0.28-0.1,0.37L23.8,55.93z
				 M24.97,57.14c-0.22-0.02-0.41-0.16-0.48-0.36s-0.01-0.43,0.15-0.57l1.16-0.87c0.17-0.14,0.41-0.17,0.61-0.07
				c0.2,0.1,0.32,0.31,0.3,0.52c-0.01,0.13-0.07,0.26-0.17,0.35l-0.32,0.24l-0.86,0.64C25.26,57.11,25.12,57.15,24.97,57.14z
				 M26.86,57.7L26.86,57.7l-0.49,0.37c-0.07,0.06-0.17,0.09-0.26,0.08s-0.18-0.05-0.25-0.12l0,0c-0.06-0.07-0.09-0.16-0.08-0.26
				c0.01-0.09,0.05-0.17,0.11-0.23l0.86-0.66L27,56.7c0,0,0-0.01,0.01-0.01l0.26-0.2c0.06-0.05,0.15-0.08,0.23-0.08
				c0.01,0,0.02,0,0.03,0c0.14,0.01,0.27,0.1,0.31,0.24c0.05,0.13,0.01,0.28-0.1,0.37l-0.86,0.66L26.86,57.7z M28.72,58.09
				l-0.92,0.69c-0.07,0.06-0.17,0.09-0.26,0.08c-0.14-0.01-0.26-0.1-0.31-0.24c-0.05-0.13-0.01-0.28,0.09-0.37l0.02-0.01l0.91-0.68
				c0.15-0.12,0.37-0.11,0.5,0.04C28.88,57.74,28.87,57.96,28.72,58.09z M35.81,55.45c-0.17,0.24-0.51,0.31-0.76,0.15l0,0
				l-2.42-1.63c-0.11-0.07-0.25-0.08-0.37-0.03c-0.12,0.05-0.2,0.17-0.21,0.3c-0.01,0.13,0.05,0.25,0.16,0.32l2.35,1.58l0,0
				c0.19,0.12,0.28,0.34,0.24,0.55c-0.04,0.21-0.21,0.38-0.43,0.42c-0.14,0.03-0.29,0-0.41-0.08l-2.43-1.63
				c-0.17-0.11-0.4-0.07-0.51,0.09s-0.07,0.39,0.09,0.5l1.77,1.19l0,0c0.26,0.17,0.33,0.51,0.16,0.77c-0.17,0.25-0.5,0.31-0.76,0.16
				l-0.65-0.45l0,0h0l-0.67-0.46c-0.11-0.07-0.25-0.09-0.37-0.03c-0.12,0.05-0.2,0.17-0.21,0.29s0.05,0.25,0.15,0.33l0.68,0.47
				c0.03,0.03,0.06,0.05,0.09,0.08c0.21,0.19,0.23,0.51,0.05,0.73s-0.5,0.27-0.74,0.11L29.4,58.4c0.21-0.31,0.23-0.7,0.07-1.04
				c-0.16-0.33-0.49-0.56-0.87-0.6c0.01-0.56-0.43-1.03-1-1.07c-0.05,0-0.09,0-0.14,0c-0.01-0.44-0.26-0.84-0.66-1.06
				c-0.4-0.21-0.88-0.21-1.27,0.02c-0.11-0.34-0.39-0.6-0.74-0.7c-0.35-0.1-0.73-0.03-1.01,0.2l-0.5,0.38l-0.57-0.45l2.58-3.77h3.24
				c-0.28,0.24-0.41,0.6-0.34,0.96c0.08,0.43,0.43,0.77,0.88,0.84c0.68,0.09,1.38,0,2.01-0.28L32,52.42
				c0.02,0.01,0.04,0.02,0.07,0.03l3.6,2.25c0.07,0.05,0.13,0.11,0.18,0.18c0,0,0,0.01,0.01,0.01
				C35.94,55.07,35.93,55.29,35.81,55.45z M36.19,54.2c-0.04-0.04-0.08-0.07-0.12-0.1l-3.65-2.29c-0.02-0.01-0.03-0.01-0.05-0.02
				l-1.09-0.67c-0.12-0.07-0.26-0.07-0.38-0.01c-0.53,0.27-1.13,0.37-1.73,0.3c-0.14-0.02-0.25-0.12-0.27-0.25
				c-0.03-0.14,0.04-0.28,0.17-0.35c0.28-0.14,0.54-0.31,0.77-0.5c0.03-0.02,0.05-0.05,0.06-0.08c0.01-0.01,0.02-0.03,0.04-0.04
				c0.11-0.09,0.55-0.36,1.77-0.14l1.46,0.61c0.08,0.03,0.16,0.04,0.24,0.02l1.3-0.35l2.18,3.19L36.19,54.2z M38.24,54.15
				l-3.31-4.83l0.7-0.52l3.33,4.95L38.24,54.15z M40.33,52.98l-0.74,0.41l-3.38-5.03l4.12-3.07L40.33,52.98L40.33,52.98z"/>
		</g>
	</g>
	<g>
		<path d="M8.64,21.48c-0.16,0.56-0.46,0.96-0.9,1.19c-0.44,0.23-0.96,0.26-1.58,0.08c-0.59-0.17-1.02-0.48-1.28-0.91
			c-0.26-0.43-0.3-0.93-0.14-1.5c0.04-0.15,0.09-0.28,0.14-0.4c0.05-0.11,0.11-0.22,0.17-0.32c0.05-0.08,0.11-0.16,0.18-0.25
			c0.07-0.09,0.13-0.16,0.18-0.21l0.89,0.26l-0.03,0.1c-0.05,0.03-0.12,0.08-0.19,0.13c-0.08,0.05-0.15,0.11-0.23,0.19
			C5.79,19.91,5.71,20,5.65,20.09c-0.07,0.09-0.12,0.2-0.15,0.31c-0.04,0.14-0.05,0.27-0.04,0.39c0.01,0.13,0.05,0.26,0.13,0.39
			c0.07,0.12,0.18,0.24,0.32,0.34c0.15,0.11,0.33,0.19,0.55,0.26c0.23,0.07,0.44,0.09,0.62,0.08c0.18-0.02,0.33-0.06,0.45-0.13
			c0.12-0.07,0.22-0.16,0.3-0.27c0.08-0.11,0.13-0.22,0.17-0.34c0.04-0.12,0.05-0.25,0.04-0.37C8.02,20.62,8,20.51,7.97,20.42
			c-0.03-0.1-0.06-0.19-0.09-0.27c-0.04-0.08-0.07-0.15-0.1-0.21l0.02-0.09l0.88,0.26c0.01,0.08,0.03,0.17,0.04,0.27
			c0.01,0.1,0.02,0.21,0.02,0.31c0,0.13,0,0.25-0.02,0.35C8.73,21.16,8.7,21.3,8.64,21.48z"/>
		<path d="M8.95,15.61c0.57,0.28,0.94,0.65,1.12,1.11c0.18,0.46,0.14,0.96-0.12,1.49c-0.26,0.53-0.63,0.87-1.1,1.01
			c-0.48,0.14-0.99,0.08-1.55-0.2c-0.56-0.28-0.94-0.64-1.12-1.11c-0.18-0.46-0.14-0.96,0.12-1.49c0.26-0.53,0.62-0.86,1.1-1.01
			C7.86,15.26,8.38,15.33,8.95,15.61z M8.5,16.52c-0.21-0.1-0.4-0.17-0.57-0.2c-0.17-0.03-0.32-0.03-0.45,0
			c-0.13,0.03-0.24,0.08-0.33,0.16C7.07,16.55,7,16.64,6.95,16.74c-0.05,0.11-0.08,0.22-0.09,0.32c0,0.11,0.02,0.23,0.08,0.36
			c0.06,0.12,0.15,0.23,0.28,0.35c0.13,0.12,0.3,0.23,0.51,0.33c0.22,0.11,0.4,0.17,0.57,0.2c0.16,0.03,0.31,0.03,0.44,0
			c0.13-0.03,0.25-0.08,0.33-0.16c0.09-0.08,0.16-0.16,0.21-0.27c0.05-0.1,0.08-0.22,0.08-0.33c0-0.12-0.03-0.24-0.09-0.35
			C9.21,17.06,9.12,16.95,9,16.84C8.89,16.73,8.72,16.62,8.5,16.52z"/>
		<path d="M13.01,13.3l-0.59,0.79L9.89,12.2L9.3,13c0.12,0.1,0.23,0.19,0.33,0.27c0.1,0.08,0.2,0.16,0.29,0.24
			c0.26,0.22,0.48,0.42,0.65,0.6c0.17,0.18,0.31,0.34,0.4,0.48c0.1,0.15,0.17,0.28,0.21,0.39c0.04,0.11,0.07,0.2,0.08,0.28
			c0.02,0.12,0.01,0.24-0.03,0.37c-0.04,0.13-0.09,0.24-0.16,0.34c-0.05,0.07-0.11,0.14-0.17,0.21c-0.06,0.07-0.11,0.12-0.12,0.14
			l-0.69-0.51l0.02-0.03c0.01-0.01,0.02-0.03,0.03-0.04c0.01-0.01,0.02-0.03,0.04-0.05c0.03-0.04,0.05-0.08,0.08-0.15
			c0.03-0.06,0.04-0.12,0.04-0.17c-0.02-0.17-0.12-0.35-0.29-0.54c-0.17-0.19-0.44-0.43-0.8-0.73c-0.17-0.14-0.32-0.26-0.45-0.36
			c-0.14-0.1-0.33-0.26-0.59-0.46l1.72-2.31L13.01,13.3z"/>
		<path d="M16,10.42l-0.71,0.66L13.55,9.2l0.65,2.91l-0.67,0.62l-2.66-2.86l0.71-0.66l1.58,1.7L12.6,8.26l0.75-0.69L16,10.42z"/>
		<path d="M19.5,8.13l-1,0.63l-1.75-0.77l-0.02,0.33l0.7,1.12L16.6,9.95l-2.08-3.3l0.83-0.52l0.92,1.47l0.13-2.13l0.96-0.61
			l-0.21,2.28L19.5,8.13z M18.68,7.78l0.76-0.48l0.87,1.38l-0.76,0.48L18.68,7.78z"/>
		<path d="M23.11,6.61L22.2,6.98l-0.54-1.34c-0.16,0.11-0.29,0.2-0.41,0.27c-0.12,0.07-0.28,0.15-0.48,0.23
			c-0.16,0.06-0.31,0.1-0.46,0.11c-0.15,0.01-0.3,0-0.44-0.05c-0.14-0.05-0.26-0.13-0.37-0.23c-0.11-0.11-0.2-0.26-0.28-0.44
			l-0.54-1.34l0.92-0.37l0.34,0.86C20,4.83,20.05,4.95,20.1,5.03c0.05,0.08,0.11,0.15,0.2,0.21c0.08,0.05,0.17,0.08,0.27,0.08
			c0.1,0,0.23-0.03,0.39-0.09c0.06-0.02,0.13-0.06,0.23-0.1c0.09-0.05,0.17-0.09,0.22-0.12l-0.66-1.65l0.91-0.37L23.11,6.61z"/>
		<path d="M27.16,5.69l-0.95,0.19L25.7,3.37l-0.95,2.82l-0.89,0.18l-0.79-3.82l0.95-0.19l0.47,2.28l0.89-2.56l1-0.21L27.16,5.69z"/>
		<path d="M31.24,4.23L29.5,4.21l0.01-0.73l1.74,0.03L31.24,4.23z"/>
		<path d="M36.92,6.56L35.78,6.3l-0.68-1.77l-0.24-0.05l-0.35,1.54L33.56,5.8L34.42,2l0.96,0.22l-0.35,1.55
			c0.15,0.03,0.27,0.02,0.36-0.02c0.09-0.04,0.21-0.15,0.35-0.33c0.04-0.05,0.09-0.12,0.15-0.19c0.06-0.07,0.11-0.14,0.15-0.19
			c0.16-0.21,0.33-0.34,0.52-0.4c0.18-0.06,0.4-0.06,0.66,0c0.09,0.02,0.16,0.04,0.21,0.05c0.06,0.02,0.1,0.03,0.13,0.03l-0.18,0.82
			l-0.22-0.05c-0.11-0.02-0.21-0.01-0.31,0.04c-0.1,0.05-0.21,0.16-0.34,0.35c-0.1,0.15-0.19,0.25-0.27,0.32
			c-0.08,0.07-0.15,0.11-0.2,0.13L36.92,6.56z"/>
		<path d="M41.66,4.3l-2.38,2.4c-0.14,0.14-0.27,0.24-0.4,0.3c-0.13,0.06-0.25,0.1-0.37,0.11c-0.12,0.01-0.23,0-0.33-0.02
			c-0.1-0.02-0.21-0.06-0.32-0.1c-0.11-0.05-0.24-0.1-0.39-0.17c-0.15-0.07-0.24-0.11-0.29-0.14l0.31-0.77l0.06,0.02
			c0.01,0.01,0.03,0.02,0.06,0.04c0.03,0.02,0.07,0.04,0.11,0.06c0.04,0.02,0.08,0.04,0.12,0.06c0.04,0.02,0.08,0.04,0.12,0.06
			c0.11,0.04,0.22,0.07,0.32,0.08c0.11,0.01,0.19-0.01,0.25-0.06L38.3,2.93l0.98,0.4l0.09,2.01l1.35-1.43L41.66,4.3z M41.74,2.94
			c-0.12,0.29-0.32,0.48-0.6,0.57c-0.28,0.09-0.64,0.05-1.08-0.13c-0.43-0.17-0.71-0.39-0.86-0.66c-0.14-0.26-0.15-0.54-0.04-0.83
			l0.8,0.32c-0.07,0.18-0.08,0.32-0.04,0.43c0.04,0.11,0.15,0.2,0.33,0.27c0.18,0.07,0.32,0.08,0.42,0.03
			c0.1-0.05,0.19-0.16,0.27-0.34L41.74,2.94z"/>
		<path d="M43.86,10.22l-0.82-0.53l1.4-2.18l-1.5,1.02l-0.56-0.36l0.31-1.79l-1.4,2.18l-0.78-0.5l2.11-3.28l0.95,0.61l-0.31,2.09
			l1.77-1.15l0.95,0.61L43.86,10.22z"/>
		<path d="M44.13,10.45l3.64-1.93l0.78,0.74L46.83,13l-0.73-0.7l0.37-0.75l-0.89-0.85l-0.73,0.41L44.13,10.45z M46.79,10.9l0.6-1.21
			l-1.18,0.66L46.79,10.9z"/>
		<path d="M49.13,16.05l-0.71-0.93l0.62-1.79l-0.15-0.2l-1.26,0.95l-0.59-0.78l3.11-2.36l0.59,0.78l-1.27,0.96
			c0.1,0.12,0.2,0.19,0.29,0.21c0.09,0.02,0.26,0.01,0.49-0.03c0.07-0.01,0.15-0.03,0.24-0.05c0.09-0.02,0.17-0.04,0.24-0.05
			c0.26-0.05,0.47-0.04,0.65,0.03c0.18,0.07,0.35,0.21,0.51,0.43c0.05,0.07,0.1,0.13,0.13,0.18c0.03,0.05,0.06,0.08,0.08,0.11
			l-0.67,0.5l-0.14-0.18c-0.07-0.09-0.15-0.15-0.26-0.17c-0.11-0.02-0.27-0.01-0.48,0.05c-0.17,0.04-0.31,0.07-0.41,0.07
			c-0.1,0-0.18-0.01-0.24-0.03L49.13,16.05z"/>
		<path d="M50.67,19.04l-0.45-0.87l1.28-0.67c-0.12-0.15-0.23-0.27-0.31-0.38c-0.08-0.11-0.17-0.26-0.28-0.46
			c-0.08-0.15-0.13-0.3-0.16-0.45c-0.03-0.15-0.03-0.3,0.01-0.44c0.03-0.14,0.1-0.27,0.2-0.39c0.1-0.12,0.23-0.23,0.41-0.32
			l1.28-0.66l0.46,0.88l-0.82,0.43c-0.15,0.08-0.26,0.14-0.34,0.19c-0.08,0.05-0.14,0.13-0.19,0.22c-0.05,0.08-0.06,0.18-0.06,0.28
			c0.01,0.1,0.05,0.23,0.13,0.38c0.03,0.05,0.07,0.13,0.13,0.21s0.1,0.16,0.14,0.21l1.58-0.82l0.45,0.87L50.67,19.04z"/>
		<path d="M51.98,22.98l-0.29-0.92l2.46-0.76l-2.9-0.67l-0.27-0.87l3.73-1.16L55,19.52l-2.22,0.69l2.63,0.64l0.3,0.98L51.98,22.98z"
			/>
	</g>
</g>
</svg>
